G04 MADE WITH FRITZING*
G04 WWW.FRITZING.ORG*
G04 DOUBLE SIDED*
G04 HOLES PLATED*
G04 CONTOUR ON CENTER OF CONTOUR VECTOR*
%ASAXBY*%
%FSLAX23Y23*%
%MOIN*%
%OFA0B0*%
%SFA1.0B1.0*%
%ADD10C,0.075000*%
%ADD11C,0.140000*%
%ADD12C,0.070000*%
%ADD13C,0.078000*%
%ADD14C,0.039370*%
%ADD15R,0.075000X0.075000*%
%ADD16C,0.024000*%
%LNCOPPER0*%
G90*
G70*
G54D10*
X2222Y1722D03*
X2222Y1422D03*
X2122Y1722D03*
X2122Y1422D03*
X2022Y1722D03*
X2022Y1422D03*
X1922Y1722D03*
X1922Y1422D03*
X1822Y1722D03*
X1822Y1422D03*
X1722Y1722D03*
X1722Y1422D03*
X1622Y1722D03*
X1622Y1422D03*
X1522Y1722D03*
X1522Y1422D03*
X1422Y1722D03*
X1422Y1422D03*
X1322Y1722D03*
X1322Y1422D03*
X1222Y1722D03*
X1222Y1422D03*
X1122Y1722D03*
X1122Y1422D03*
X1022Y1722D03*
X1022Y1422D03*
X922Y1722D03*
X922Y1422D03*
G54D11*
X562Y1972D03*
X322Y1972D03*
X442Y1782D03*
G54D12*
X1322Y1322D03*
X1422Y1322D03*
G54D13*
X522Y722D03*
X622Y722D03*
X722Y722D03*
X822Y722D03*
X1372Y272D03*
X1472Y272D03*
X1122Y272D03*
X1222Y272D03*
X872Y272D03*
X972Y272D03*
G54D14*
X422Y722D03*
G54D10*
X1022Y522D03*
X1022Y922D03*
X1222Y522D03*
X1222Y922D03*
X1422Y522D03*
X1422Y922D03*
G54D13*
X1722Y1022D03*
X1722Y922D03*
X1722Y822D03*
X1722Y722D03*
X1922Y1022D03*
X1922Y922D03*
X1922Y822D03*
X1922Y722D03*
G54D10*
X2372Y872D03*
X2372Y1172D03*
X2472Y872D03*
X2472Y1172D03*
X2572Y872D03*
X2572Y1172D03*
X2672Y872D03*
X2672Y1172D03*
X2772Y872D03*
X2772Y1172D03*
X2872Y872D03*
X2872Y1172D03*
X2972Y872D03*
X2972Y1172D03*
X3072Y872D03*
X3072Y1172D03*
G54D14*
X623Y1873D03*
X623Y1621D03*
X623Y923D03*
G54D13*
X2272Y172D03*
X2372Y172D03*
X2472Y172D03*
X2572Y172D03*
X2672Y172D03*
X2772Y172D03*
X2872Y172D03*
X2972Y172D03*
X3072Y172D03*
X3172Y172D03*
X2272Y172D03*
X2372Y172D03*
X2472Y172D03*
X2572Y172D03*
X2672Y172D03*
X2772Y172D03*
X2872Y172D03*
X2972Y172D03*
X3072Y172D03*
X3172Y172D03*
X3172Y272D03*
X3072Y272D03*
X2972Y272D03*
X2872Y272D03*
X2772Y272D03*
X2672Y272D03*
X2572Y272D03*
X2472Y272D03*
X2372Y272D03*
X2272Y272D03*
G54D10*
X2272Y272D03*
X2272Y672D03*
X2372Y272D03*
X2372Y672D03*
X2472Y272D03*
X2472Y672D03*
X3172Y272D03*
X3172Y672D03*
X2972Y272D03*
X2972Y672D03*
X2872Y272D03*
X2872Y672D03*
X3072Y272D03*
X3072Y672D03*
X2572Y272D03*
X2572Y672D03*
X2772Y272D03*
X2772Y672D03*
X2672Y272D03*
X2672Y672D03*
G54D14*
X1922Y121D03*
X3273Y671D03*
X2122Y973D03*
X2621Y973D03*
X2971Y1072D03*
G54D15*
X2222Y1722D03*
X2372Y872D03*
G54D16*
X1205Y922D02*
X1040Y922D01*
D02*
X1405Y922D02*
X1240Y922D01*
D02*
X1422Y940D02*
X1422Y1307D01*
D02*
X623Y1629D02*
X623Y1865D01*
D02*
X1005Y922D02*
X630Y923D01*
D02*
X3267Y677D02*
X3085Y860D01*
D02*
X2629Y975D02*
X2964Y1070D01*
D02*
X2130Y973D02*
X2614Y973D01*
G04 End of Copper0*
M02*