G04 MADE WITH FRITZING*
G04 WWW.FRITZING.ORG*
G04 DOUBLE SIDED*
G04 HOLES PLATED*
G04 CONTOUR ON CENTER OF CONTOUR VECTOR*
%ASAXBY*%
%FSLAX23Y23*%
%MOIN*%
%OFA0B0*%
%SFA1.0B1.0*%
%ADD10C,0.075000*%
%ADD11C,0.140000*%
%ADD12C,0.070000*%
%ADD13C,0.078000*%
%ADD14C,0.039370*%
%ADD15R,0.075000X0.075000*%
%ADD16C,0.024000*%
%LNCOPPER1*%
G90*
G70*
G54D10*
X2222Y1722D03*
X2222Y1422D03*
X2122Y1722D03*
X2122Y1422D03*
X2022Y1722D03*
X2022Y1422D03*
X1922Y1722D03*
X1922Y1422D03*
X1822Y1722D03*
X1822Y1422D03*
X1722Y1722D03*
X1722Y1422D03*
X1622Y1722D03*
X1622Y1422D03*
X1522Y1722D03*
X1522Y1422D03*
X1422Y1722D03*
X1422Y1422D03*
X1322Y1722D03*
X1322Y1422D03*
X1222Y1722D03*
X1222Y1422D03*
X1122Y1722D03*
X1122Y1422D03*
X1022Y1722D03*
X1022Y1422D03*
X922Y1722D03*
X922Y1422D03*
G54D11*
X562Y1972D03*
X322Y1972D03*
X442Y1782D03*
G54D12*
X1322Y1322D03*
X1422Y1322D03*
G54D13*
X522Y722D03*
X622Y722D03*
X722Y722D03*
X822Y722D03*
X1372Y272D03*
X1472Y272D03*
X1122Y272D03*
X1222Y272D03*
X872Y272D03*
X972Y272D03*
G54D14*
X422Y722D03*
G54D10*
X1022Y522D03*
X1022Y922D03*
X1222Y522D03*
X1222Y922D03*
X1422Y522D03*
X1422Y922D03*
G54D13*
X1722Y1022D03*
X1722Y922D03*
X1722Y822D03*
X1722Y722D03*
X1922Y1022D03*
X1922Y922D03*
X1922Y822D03*
X1922Y722D03*
G54D10*
X2372Y872D03*
X2372Y1172D03*
X2472Y872D03*
X2472Y1172D03*
X2572Y872D03*
X2572Y1172D03*
X2672Y872D03*
X2672Y1172D03*
X2772Y872D03*
X2772Y1172D03*
X2872Y872D03*
X2872Y1172D03*
X2972Y872D03*
X2972Y1172D03*
X3072Y872D03*
X3072Y1172D03*
G54D14*
X623Y1873D03*
X623Y1621D03*
X623Y923D03*
G54D13*
X2272Y172D03*
X2372Y172D03*
X2472Y172D03*
X2572Y172D03*
X2672Y172D03*
X2772Y172D03*
X2872Y172D03*
X2972Y172D03*
X3072Y172D03*
X3172Y172D03*
X2272Y172D03*
X2372Y172D03*
X2472Y172D03*
X2572Y172D03*
X2672Y172D03*
X2772Y172D03*
X2872Y172D03*
X2972Y172D03*
X3072Y172D03*
X3172Y172D03*
X3172Y272D03*
X3072Y272D03*
X2972Y272D03*
X2872Y272D03*
X2772Y272D03*
X2672Y272D03*
X2572Y272D03*
X2472Y272D03*
X2372Y272D03*
X2272Y272D03*
G54D10*
X2272Y272D03*
X2272Y672D03*
G54D14*
X1922Y121D03*
G54D10*
X2372Y272D03*
X2372Y672D03*
X2472Y272D03*
X2472Y672D03*
X2572Y272D03*
X2572Y672D03*
X2672Y272D03*
X2672Y672D03*
X2772Y272D03*
X2772Y672D03*
X2872Y272D03*
X2872Y672D03*
X2972Y272D03*
X2972Y672D03*
X3072Y272D03*
X3072Y672D03*
X3172Y272D03*
X3172Y672D03*
G54D14*
X3273Y671D03*
X2122Y973D03*
X2621Y973D03*
X2971Y1072D03*
G54D15*
X2222Y1722D03*
X2372Y872D03*
G54D16*
X1322Y1405D02*
X1322Y1337D01*
D02*
X1422Y1405D02*
X1422Y1337D01*
D02*
X1332Y1437D02*
X1513Y1708D01*
D02*
X822Y1421D02*
X905Y1422D01*
D02*
X822Y741D02*
X822Y1222D01*
D02*
X822Y1222D02*
X822Y1421D01*
D02*
X921Y1622D02*
X922Y1705D01*
D02*
X723Y1622D02*
X921Y1622D01*
D02*
X722Y741D02*
X723Y1622D01*
D02*
X422Y730D02*
X441Y1732D01*
D02*
X503Y722D02*
X430Y722D01*
D02*
X873Y1872D02*
X723Y1771D01*
D02*
X1522Y1872D02*
X873Y1872D01*
D02*
X723Y1771D02*
X492Y1780D01*
D02*
X1522Y1740D02*
X1522Y1872D01*
D02*
X872Y122D02*
X423Y122D01*
D02*
X423Y122D02*
X422Y714D01*
D02*
X872Y253D02*
X872Y122D01*
D02*
X922Y523D02*
X922Y1022D01*
D02*
X922Y1022D02*
X1022Y1022D01*
D02*
X1022Y1022D02*
X1022Y1405D01*
D02*
X1005Y522D02*
X922Y523D01*
D02*
X976Y291D02*
X1019Y505D01*
D02*
X1121Y523D02*
X1121Y1022D01*
D02*
X1121Y1022D02*
X1122Y1405D01*
D02*
X1205Y522D02*
X1121Y523D01*
D02*
X1222Y291D02*
X1222Y505D01*
D02*
X1121Y122D02*
X1122Y253D01*
D02*
X872Y122D02*
X1121Y122D01*
D02*
X1321Y523D02*
X1321Y1022D01*
D02*
X1321Y1022D02*
X1221Y1022D01*
D02*
X1221Y1022D02*
X1222Y1405D01*
D02*
X1405Y522D02*
X1321Y523D01*
D02*
X1469Y291D02*
X1426Y505D01*
D02*
X1722Y1041D02*
X1722Y1405D01*
D02*
X1703Y922D02*
X1623Y923D01*
D02*
X1623Y923D02*
X1622Y1405D01*
D02*
X1703Y822D02*
X1572Y823D01*
D02*
X1572Y823D02*
X1437Y913D01*
D02*
X1922Y1041D02*
X1922Y1405D01*
D02*
X1823Y923D02*
X1822Y1405D01*
D02*
X1903Y922D02*
X1823Y923D01*
D02*
X1903Y822D02*
X1741Y822D01*
D02*
X1374Y122D02*
X1372Y253D01*
D02*
X1121Y122D02*
X1374Y122D01*
D02*
X1374Y122D02*
X1723Y122D01*
D02*
X1723Y122D02*
X1722Y703D01*
D02*
X1922Y129D02*
X1922Y703D01*
D02*
X1723Y122D02*
X1914Y121D01*
D02*
X618Y1880D02*
X588Y1930D01*
D02*
X623Y930D02*
X623Y1613D01*
D02*
X622Y741D02*
X623Y915D01*
D02*
X2472Y1072D02*
X2472Y1155D01*
D02*
X2272Y690D02*
X2272Y1072D01*
D02*
X2272Y1072D02*
X2472Y1072D01*
D02*
X2071Y73D02*
X1929Y119D01*
D02*
X2272Y73D02*
X2071Y73D01*
D02*
X2272Y153D02*
X2272Y73D01*
D02*
X2373Y73D02*
X2372Y153D01*
D02*
X2272Y73D02*
X2373Y73D01*
D02*
X2472Y73D02*
X2472Y153D01*
D02*
X2373Y73D02*
X2472Y73D01*
D02*
X2472Y73D02*
X2573Y73D01*
D02*
X2573Y73D02*
X2572Y153D01*
D02*
X2672Y73D02*
X2672Y153D01*
D02*
X2573Y73D02*
X2672Y73D01*
D02*
X2672Y73D02*
X2773Y73D01*
D02*
X2773Y73D02*
X2772Y153D01*
D02*
X2872Y73D02*
X2872Y153D01*
D02*
X2773Y73D02*
X2872Y73D01*
D02*
X2971Y73D02*
X2972Y153D01*
D02*
X2872Y73D02*
X2971Y73D01*
D02*
X2971Y73D02*
X3073Y73D01*
D02*
X3073Y73D02*
X3072Y153D01*
D02*
X3171Y73D02*
X3172Y153D01*
D02*
X3073Y73D02*
X3171Y73D01*
D02*
X2122Y1173D02*
X2122Y981D01*
D02*
X2122Y965D02*
X2122Y823D01*
D02*
X2122Y823D02*
X1941Y822D01*
D02*
X2355Y1172D02*
X2122Y1173D01*
D02*
X3273Y73D02*
X3273Y572D01*
D02*
X3273Y572D02*
X3273Y663D01*
D02*
X3171Y73D02*
X3273Y73D01*
D02*
X2372Y855D02*
X2372Y690D01*
D02*
X2472Y855D02*
X2472Y690D01*
D02*
X2572Y855D02*
X2572Y690D01*
D02*
X2672Y855D02*
X2672Y690D01*
D02*
X2772Y855D02*
X2772Y690D01*
D02*
X2872Y855D02*
X2872Y690D01*
D02*
X2972Y855D02*
X2972Y690D01*
D02*
X2122Y1323D02*
X2122Y1405D01*
D02*
X2773Y1323D02*
X2122Y1323D01*
D02*
X2772Y1190D02*
X2773Y1323D01*
D02*
X2573Y1272D02*
X2023Y1272D01*
D02*
X2572Y1190D02*
X2573Y1272D01*
D02*
X2023Y1272D02*
X2022Y1405D01*
D02*
X2672Y1072D02*
X2672Y1155D01*
D02*
X3073Y973D02*
X2672Y1072D01*
D02*
X3072Y890D02*
X3073Y973D01*
D02*
X2971Y1080D02*
X2972Y1155D01*
D02*
X3273Y1923D02*
X2023Y1923D01*
D02*
X2023Y1923D02*
X2022Y1740D01*
D02*
X3273Y773D02*
X3273Y1923D01*
D02*
X3185Y685D02*
X3273Y773D01*
D02*
X3171Y1822D02*
X2122Y1822D01*
D02*
X3171Y823D02*
X3171Y1822D01*
D02*
X2122Y1822D02*
X2122Y1740D01*
D02*
X3082Y687D02*
X3171Y823D01*
D02*
X2872Y1573D02*
X2221Y1573D01*
D02*
X2221Y1573D02*
X2222Y1440D01*
D02*
X2872Y1190D02*
X2872Y1573D01*
G04 End of Copper1*
M02*