; NON-PLATED HOLES START AT T1
; THROUGH (PLATED) HOLES START AT T100
M48
INCH
T100C0.015748
T101C0.030000
T102C0.035000
T103C0.100000
T104C0.038000
%
T100
X029711Y010716
X032727Y006712
X026214Y009728
X006225Y016208
X006225Y009225
X006225Y018730
X021221Y009728
X019219Y001213
X004217Y007219
T101
X014224Y013222
X013222Y013222
T102
X011222Y014222
X020222Y017222
X024722Y011722
X010222Y017222
X026722Y006722
X012222Y005222
X017222Y017222
X031722Y002722
X031722Y006722
X009222Y014222
X022722Y006722
X026722Y008722
X024722Y008722
X014222Y014222
X028722Y002722
X030722Y008722
X027722Y006722
X029722Y006722
X013222Y014222
X012222Y017222
X023722Y008722
X014222Y009222
X025722Y008722
X012222Y009222
X022222Y017222
X025722Y002722
X027722Y002722
X025722Y011722
X016222Y014222
X015222Y014222
X017222Y014222
X011222Y017222
X022222Y014222
X026722Y011722
X014222Y005222
X027722Y011722
X023722Y011722
X018222Y017222
X025722Y006722
X010222Y014222
X023722Y006722
X029722Y008722
X024722Y006722
X021222Y017222
X012222Y014222
X018222Y014222
X013222Y017222
X019222Y014222
X022722Y002722
X010222Y005222
X024722Y002722
X023722Y002722
X028722Y011722
X030722Y002722
X029722Y011722
X029722Y002722
X014222Y017222
X015222Y017222
X010222Y009222
X009222Y017222
X019222Y017222
X021222Y014222
X016222Y017222
X028722Y008722
X027722Y008722
X020222Y014222
X026722Y002722
X030722Y011722
X030722Y006722
X028722Y006722
T103
X003222Y019722
X004422Y017822
X005622Y019722
T104
X019222Y008222
X028722Y002722
X031722Y001722
X031722Y002722
X028722Y001722
X014722Y002722
X022722Y002722
X029722Y001722
X026722Y001722
X024722Y002722
X023722Y001722
X017222Y009222
X013722Y002722
X030722Y002722
X023722Y002722
X024722Y001722
X011222Y002722
X008722Y002722
X027722Y001722
X025722Y002722
X007222Y007222
X008222Y007222
X019222Y009222
X009722Y002722
X030722Y001722
X006222Y007222
X027722Y002722
X012222Y002722
X029722Y002722
X017222Y007222
X019222Y010222
X019222Y007222
X026722Y002722
X017222Y010222
X005222Y007222
X025722Y001722
X017222Y008222
X022722Y001722
T00
M30
